<svg width="25" height="12" viewBox="0 0 25 12" fill="none" xmlns="http://www.w3.org/2000/svg">
<path d="M1.424 0.00136365C1.57512 0.00906327 1.72174 0.0542224 1.85008 0.132556C1.97841 0.21089 2.08423 0.319863 2.15757 0.449172L4.02536 3.75267C4.0601 3.81441 4.11119 3.86589 4.17327 3.90173C4.23536 3.93757 4.30616 3.95646 4.37827 3.95641H6.64336C6.69595 3.95614 6.74797 3.94581 6.79649 3.926L13.9392 1.03009C14.6387 0.746624 15.4138 0.693808 16.1469 0.879694C16.8799 1.06558 17.5309 1.48003 18.001 2.06011L19.032 3.33182L22.206 3.78181C22.3831 3.80665 22.55 3.87753 22.6894 3.98702C22.8288 4.0965 22.9356 4.24057 22.9984 4.40415H23.5589V1.93973C23.5589 1.87719 23.5844 1.81723 23.6296 1.77301C23.6749 1.72878 23.7363 1.70392 23.8003 1.70392C23.8643 1.70392 23.9257 1.72878 23.971 1.77301C24.0162 1.81723 24.0417 1.87719 24.0417 1.93973V4.40415H24.7586C24.8226 4.40415 24.884 4.42895 24.9293 4.47318C24.9746 4.5174 25 4.57742 25 4.63997C25 4.70251 24.9746 4.76247 24.9293 4.8067C24.884 4.85092 24.8226 4.87578 24.7586 4.87578H24.0417V7.33905C24.0417 7.40159 24.0162 7.46162 23.971 7.50584C23.9257 7.55007 23.8643 7.57486 23.8003 7.57486C23.7363 7.57486 23.6749 7.55007 23.6296 7.50584C23.5844 7.46162 23.5589 7.40159 23.5589 7.33905V4.87578H23.0528C23.0306 5.03805 22.9669 5.19222 22.8676 5.3241C22.7682 5.45598 22.6365 5.5613 22.4846 5.63035L19.6835 6.90104C18.1871 7.29896 16.6641 7.59388 15.1255 7.78359L15.6282 9.04993H18.0587C18.2104 9.04953 18.3579 9.09827 18.4782 9.18849C18.5986 9.27871 18.6849 9.40534 18.7237 9.54858C18.7625 9.69181 18.7516 9.84357 18.6927 9.98012C18.6339 10.1167 18.5303 10.2303 18.3983 10.3033L15.8469 11.7214C15.5174 11.9042 15.1449 12.0002 14.766 12H6.77428C6.37663 11.9959 5.9967 11.8387 5.717 11.5625C5.4373 11.2863 5.28042 10.9135 5.28042 10.525C5.28042 10.1365 5.4373 9.76367 5.717 9.4875C5.9967 9.21132 6.37663 9.05407 6.77428 9.04993H7.96396L8.40677 7.94078C5.83921 7.74581 3.30362 7.25934 0.851276 6.4912C0.645803 6.42666 0.461395 6.31032 0.316668 6.1539C0.171942 5.99748 0.0720215 5.80653 0.0269947 5.60032C-0.018034 5.3941 -0.00657463 5.17995 0.060215 4.97944C0.127005 4.77894 0.246759 4.59915 0.407391 4.45832L0.487282 0.851201C0.490019 0.734703 0.516651 0.619912 0.565603 0.513648C0.614555 0.407384 0.684832 0.311825 0.772274 0.232567C0.859715 0.153309 0.962543 0.0920081 1.07467 0.0522656C1.1868 0.012523 1.30595 -0.00487363 1.42507 0.00117156L1.424 0.00136365ZM17.606 2.33997L14.6006 2.85174C14.6416 3.12116 14.7818 3.3667 14.9949 3.54234C15.208 3.71799 15.4794 3.81167 15.7581 3.80582L18.425 3.35154L17.606 2.33997ZM14.624 7.84122C12.7296 8.04613 10.8207 8.09116 8.91846 7.97574L8.49008 9.05012H15.1056L14.624 7.84122Z" fill="#EFCFA5"/>
</svg>
