2<svg width="21" height="16" viewBox="0 0 21 16" fill="none" xmlns="http://www.w3.org/2000/svg">
<path fill-rule="evenodd" clip-rule="evenodd" d="M14.6016 6.89137C14.4713 8.69465 14.3058 10.9547 14.1844 12.4663C13.9637 15.3138 10.5246 16 10.5246 16L9.89994 9.22427L7.96851 10.1613L4.1189 12.1533L0 8.82759C0 8.82759 0.993305 6.8978 3.38607 7.65256C3.69951 7.7512 4.14098 7.89486 4.64425 8.05782C7.05246 6.41535 12.2839 2.88382 14.5376 1.62517C16.9988 0.252871 20.2568 -0.317492 20.8815 0.74604C21.5062 1.80957 19.5769 4.20895 17.0848 5.59626C16.5352 5.90717 15.6501 6.36389 14.6016 6.89137ZM2.36407 1.71523C2.36407 1.71523 4.2977 -1.01222 7.38356 0.411542C8.70797 1.0205 10.2531 1.76669 11.5775 2.42282L6.83394 4.96157L2.36407 1.71523Z" fill="#EFCFA5"/>
</svg>
