<svg width="120" height="120" viewBox="0 0 120 120" fill="none" xmlns="http://www.w3.org/2000/svg">
<rect x="6" y="6" width="108" height="108" fill="#180F0B"/>
<path d="M7.875 82.8122C11.6152 84.0405 16.2284 84.518 21.4577 82.9473C24.7601 81.9555 28.0147 80.7288 31.2406 79.5129C41.8637 75.509 52.1745 71.6227 62.8528 76.6273C62.8528 76.6273 54.3206 68.4529 36.5852 72.6305C32.0458 73.6997 27.941 75.1606 24.1232 76.5194C18.1997 78.6275 12.9673 80.4897 7.875 80.2615V82.8122Z" fill="#79BFD6"/>
<path fill-rule="evenodd" clip-rule="evenodd" d="M74.4067 85.5905C74.4067 85.5905 66.1255 79.3915 58.1402 78.9889C50.1548 78.5865 41.578 80.7978 30.3394 86.0522C30.3394 86.0522 44.6834 81.1626 55.2813 81.1626C67.2489 81.1626 74.4067 85.5905 74.4067 85.5905Z" fill="#1C8699"/>
<path d="M112 102.837C108.197 100.894 103.267 98.9519 98.4241 98.7078C88.3947 98.2024 77.6226 100.98 63.5073 107.579C63.5073 107.579 81.5228 101.438 94.8334 101.438C102.062 101.438 107.894 102.724 112 104.059V102.837Z" fill="#1C8699"/>
<path fill-rule="evenodd" clip-rule="evenodd" d="M114 6H60.0051C60.0413 5.13444 60.2707 4.4628 60.7282 3.99999L116.729 4V58.6785C116.302 59.6837 115.374 60.125 114 60.125V6ZM60 114H114V60.125C115.374 60.125 116.302 60.5663 116.729 61.5715V116.75H61.496C60.4558 116.332 60 115.397 60 114ZM3.75 60.8532L3.75001 116.75H58.504C59.5442 116.332 60 115.397 60 114H6V60.125V6H59.9949C59.9587 5.13444 59.7293 4.4628 59.2718 3.99999L3.75 3.99999L3.75 59.3968C4.25644 59.8974 5.01296 60.125 6 60.125C5.01296 60.125 4.25644 60.3526 3.75 60.8532ZM2.75 58.629L2.75 3.99999L0 3.99999V60.125V116.75H2.75001L2.75 61.621C2.33191 60.5808 1.39677 60.125 0 60.125C1.39677 60.125 2.33191 59.6692 2.75 58.629ZM3.75001 117.75H59.2718C59.7724 118.256 60 119.013 60 120H3.75001V117.75ZM60 120C60 119.013 60.2276 118.256 60.7282 117.75H116.729V120H60ZM117.729 60.8738V116.75H120V60.125V4L117.729 4V59.3762C118.236 59.8912 119 60.125 120 60.125C119 60.125 118.236 60.3588 117.729 60.8738ZM116.729 3L61.496 2.99999C60.4558 2.5819 60 1.64676 60 0.25C60 1.64676 59.5442 2.5819 58.504 2.99999L3.75 2.99999L3.75 0H116.729V3ZM0 0V2.99999L2.75 2.99999L2.75 0H0ZM0 117.75V120H2.75001V117.75H0ZM117.729 117.75V120H120V117.75H117.729ZM120 0V3L117.729 3V0H120Z" fill="url(#paint0_linear_120_30)"/>
<path fill-rule="evenodd" clip-rule="evenodd" d="M74.4714 23.594C77.3063 25.1214 78.5566 27.3949 78.8534 31.5622L78.97 33.1997L78.1683 34.3709C76.6135 36.6418 75.9628 38.3864 76.0502 40.0493L76.1019 41.0331L76.9906 41.2326C77.5278 41.353 78.1147 41.6385 78.4737 41.9537C78.8005 42.2407 79.4659 42.6076 79.9521 42.7691C80.7504 43.0344 81.1723 43.409 80.9371 43.6441C80.8885 43.6928 80.4036 43.6032 79.8596 43.4451C78.4333 43.0303 77.4413 43.1938 75.9628 44.0872C74.9474 44.7007 74.5543 44.836 73.4604 44.9489C71.6113 45.1397 69.3827 44.792 67.1078 43.9577C66.6733 43.7984 65.4266 43.6174 64.2395 43.5414C62.7714 43.4473 62.0114 43.3228 61.7133 43.1274C60.8243 42.5451 61.0035 42.5004 65.3973 42.208C68.7051 41.9881 69.1768 41.6769 69.6045 39.4322C69.9188 37.7833 70.2589 37.0881 72.0444 34.4454C73.6316 32.0962 74.4209 30.3326 74.208 29.6102C74.148 29.4064 73.7947 28.7285 73.423 28.1036C72.6454 26.797 72.351 25.6474 72.8421 25.8358C73.1204 25.9425 73.1218 25.916 72.865 25.4195C72.7141 25.1279 72.5908 24.6838 72.5908 24.4329C72.5908 23.9813 72.5956 23.9796 73.0339 24.2668C73.6109 24.645 73.6794 24.5461 73.3638 23.7908C72.9423 22.7818 72.9587 22.7789 74.4714 23.594ZM60.5181 26.9426C64.9224 28.4184 68.2879 30.1533 71.0915 32.3928C71.6329 32.8251 72.076 33.2401 72.0763 33.3148C72.0766 33.3895 71.6106 34.1373 71.0408 34.9763C69.865 36.7076 69.238 38.1154 69.0663 39.4097C68.9014 40.6521 67.9664 41.7808 67.9664 40.7374C67.9664 40.022 67.459 37.3277 67.0912 36.0906C66.5308 34.2053 65.677 32.5124 64.9198 31.7852C64.2024 31.0961 64.0962 31.0358 60.6017 29.3354C58.4169 28.2722 57.0521 27.3095 57.4955 27.1442C57.6621 27.0822 57.5943 26.9498 57.2595 26.6828L56.79 26.3084H57.7077C58.3113 26.3084 59.2735 26.5254 60.5181 26.9426Z" fill="#79BFD6"/>
<path fill-rule="evenodd" clip-rule="evenodd" d="M81.8307 14.6329C80.521 14.7888 78.4916 15.0915 78.16 15.1805L77.7715 15.2848L78.4827 15.847C80.1762 17.1856 82.8002 18.1104 85.795 18.4242L86.6084 18.5094L87.41 19.5455C88.7996 21.3417 89.8681 23.7206 90.1123 25.5616C90.1611 25.9297 90.2237 26.231 90.2513 26.231C90.279 26.231 90.6431 25.998 91.0604 25.7131C91.4778 25.4282 91.994 25.1307 92.2076 25.052C92.5375 24.9305 92.4971 24.9935 91.9396 25.47C91.5786 25.7786 90.7213 26.5634 90.0344 27.2142C89.3477 27.8649 88.4615 28.5687 88.0652 28.7784C87.6689 28.988 87.3234 29.1767 87.2975 29.1976C87.1883 29.2855 87.8789 30.0907 88.3662 30.4438C88.9287 30.8514 89.5676 30.9396 90.0775 30.6802C90.2352 30.5999 90.8073 30.0999 91.3489 29.569C92.2174 28.7176 92.4418 28.5707 93.2525 28.3233C95.4128 27.664 97.4 26.2383 98.298 24.7035C98.8368 23.7824 99.2715 23.2867 99.8591 22.923C100.534 22.5053 100.221 22.3447 99.1154 22.5422C98.6165 22.6315 97.9865 22.6627 97.7154 22.6119C97.4409 22.5604 96.8339 22.5927 96.3456 22.6849C95.2845 22.8851 94.9276 22.7458 93.9623 21.7549C93.1728 20.9442 92.919 20.1993 92.7367 18.157L92.5961 16.5816L91.6771 16.0964C90.5183 15.4844 88.9469 14.9782 87.4542 14.736C86.4049 14.5656 82.9307 14.5019 81.8307 14.6329ZM100.014 23.9588C99.1234 24.1082 98.8408 24.2813 98.5559 24.8519C98.3985 25.167 98.005 25.7273 97.6817 26.097C97.1054 26.7558 97.1012 26.7671 97.4705 26.6678C98.1032 26.4977 99.0234 26.5831 99.572 26.863C100.431 27.3014 101.333 28.2129 102.637 29.9626C103.678 31.3581 103.893 31.5835 104.001 31.3899C104.072 31.2635 104.157 30.2394 104.189 29.1144C104.254 26.854 104.1 25.9656 103.475 25.0067C102.888 24.1065 101.549 23.701 100.014 23.9588Z" fill="#79BFD6"/>
<path d="M32.5366 16C34.8049 16 34.4756 18.8576 33.7805 20.6248L28.6951 33.9352L23.6098 20.6248C22.9512 18.82 22.622 16 24.8902 16H16C18.2683 16 20.0976 18.82 20.7927 20.6248L28 39.5L35.2073 20.6248C35.939 18.7448 37.7317 16 40 16H32.5366Z" fill="url(#paint1_linear_120_30)"/>
<path d="M95 44C95.0111 48.9371 97.4608 51 102 51C97.4608 51 95.0111 53.0629 95 58C94.9889 53.0629 92.5392 51 88 51C92.5392 51 94.9889 48.9371 95 44Z" fill="#79BFD6"/>
<path d="M52 93C52.0079 96.5265 53.7577 98 57 98C53.7577 98 52.0079 99.4735 52 103C51.9921 99.4735 50.2423 98 47 98C50.2423 98 51.9921 96.5265 52 93Z" fill="#79BFD6"/>
<defs>
<linearGradient id="paint0_linear_120_30" x1="60" y1="0" x2="60" y2="120" gradientUnits="userSpaceOnUse">
<stop stop-color="#FAE4BC"/>
<stop offset="1" stop-color="#D6A072"/>
</linearGradient>
<linearGradient id="paint1_linear_120_30" x1="105.431" y1="12.24" x2="105.431" y2="53.6752" gradientUnits="userSpaceOnUse">
<stop stop-color="#FAE4BC"/>
<stop offset="1" stop-color="#D6A072"/>
</linearGradient>
</defs>
</svg>
