<svg width="100%" height="auto" viewBox="0 0 301 82" fill="none" xmlns="http://www.w3.org/2000/svg">
<path fill-rule="evenodd" clip-rule="evenodd" d="M162.175 27.3768C162.728 27.2579 163.282 27.2579 163.835 27.2579C169.739 27.2579 175.213 32.4285 176.566 39.6793C177.98 47.5243 173.921 54.8345 167.402 55.9637C166.849 56.0826 166.295 56.0826 165.803 56.0826C159.899 56.0826 154.364 50.912 153.073 43.6612C151.597 35.7567 155.717 28.506 162.175 27.3768ZM174.044 60.4806C171.01 60.4806 168.467 61.414 166.05 62.3009C163.863 63.1036 161.78 63.8682 159.53 63.8682C154.303 63.8682 150.059 60.54 150.059 56.4392C150.059 54.4779 150.982 52.6949 152.519 51.3874C155.471 54.8345 159.838 56.9741 164.819 56.9741C173.552 56.9741 180.686 50.1394 180.686 41.6405C180.686 35.519 176.873 30.1701 171.461 27.7334C173.614 25.0589 176.873 23.4542 180.563 22.9788L179.579 20.3638C175.951 21.6713 172.691 24.0486 170.416 27.3173C168.694 26.6636 166.787 26.307 164.819 26.307C156.025 26.307 148.952 33.2011 148.952 41.6405C148.952 45.2065 150.182 48.4752 152.273 51.0308C149.998 52.8732 148.583 55.5477 148.583 58.6382C148.583 64.0465 153.134 68.5039 158.792 68.5039C161.953 68.5039 164.4 67.5753 166.755 66.6819C168.937 65.8542 171.038 65.0569 173.552 65.0569C174.954 65.0569 176.276 65.2873 177.437 65.7448C178.993 65.6753 180.431 65.7177 181.753 65.8406C180.39 62.8797 177.856 60.4806 174.044 60.4806ZM148.945 72.8907C149.882 72.7777 150.828 72.6043 151.79 72.3846C151.856 70.7516 152.329 69.2203 153.011 67.7907C151.001 69.2152 149.575 70.9531 148.945 72.8907ZM29.889 33.6172C31.0575 30.8239 31.611 26.307 27.798 26.307H40.344C36.531 26.307 33.5175 30.6456 32.2875 33.6172L20.172 63.4522L8.0565 33.6172C6.888 30.7644 3.813 26.307 0 26.307H14.9445C11.1315 26.307 11.685 30.7644 12.792 33.6172L21.3405 54.6562L29.889 33.6172ZM36.0337 44.9093C36.0337 34.6275 44.6437 26.307 55.2832 26.307C65.8612 26.307 74.4712 34.6275 74.4712 44.9093C74.4712 55.1317 65.8612 63.4522 55.2832 63.4522C44.6437 63.4522 36.0337 55.1317 36.0337 44.9093ZM56.4517 62.3824C57.0667 62.3824 57.7432 62.323 58.4197 62.2041C66.2917 60.8372 71.2117 52.0412 69.4897 42.4726C67.8907 33.736 61.2487 27.4362 54.1762 27.4362C53.4382 27.4362 52.7617 27.4956 52.0852 27.6145C44.2747 28.922 39.2932 37.7774 41.0767 47.2866C42.6757 56.0231 49.2562 62.3824 56.4517 62.3824ZM102.25 26.307C106.001 26.307 105.509 30.6456 104.402 33.5577L104.341 33.6172L94.501 57.925L84.661 33.6172C83.4925 30.705 83.0005 26.307 86.8135 26.307H71.869C75.7435 26.307 78.757 30.7644 79.9255 33.6172L92.164 63.8088L90.934 66.721C90.8201 67.007 90.7062 67.2927 90.5921 67.5776L90.6044 67.5748C91.4894 67.3742 92.3539 67.2002 93.1978 67.0508C93.2427 66.9413 93.2876 66.8313 93.3325 66.721L106.739 33.6172C107.908 30.7644 110.921 26.307 114.796 26.307H102.25ZM118.967 52.9921C118.967 58.5787 122.903 62.4418 127.823 62.4418C131.205 62.4418 134.096 60.3023 135.633 57.1524V37.6586C135.633 36.6482 135.51 35.6379 135.326 34.687C135.013 37.0353 132.441 38.2648 129.426 39.7064C124.733 41.9497 118.967 44.7066 118.967 52.9921ZM128.684 26.307C135.141 26.307 140.369 31.4182 140.369 37.6586V56.142C140.369 59.1136 141.599 63.4522 145.473 63.4522H139.569C137.355 63.4522 135.633 61.7287 135.633 59.6485V58.1033C133.604 61.3126 129.914 63.4522 125.732 63.4522C119.397 63.4522 114.17 59.1731 114.17 52.9921C114.17 44.8764 121.317 42.2057 127.252 39.988C131.748 38.3079 135.549 36.8879 135.018 33.5577C133.973 29.8729 131.513 27.3173 128.684 27.3173C124.563 27.3173 121.796 29.4569 119.213 32.8446L117.306 30.6456C120.689 27.9711 123.948 26.307 128.684 26.307ZM202.111 27.6145C194.301 28.922 189.32 37.7774 191.042 47.2866C191.472 49.545 192.21 51.5657 193.194 53.4081L216.318 34.6275C213.612 30.5861 209.615 27.9117 205.31 27.4956C204.941 27.4362 204.572 27.4362 204.202 27.4362C203.526 27.4362 202.849 27.4956 202.111 27.6145ZM218.163 55.6666C218.409 55.6666 218.716 55.7854 218.962 55.9637C219.577 56.4392 219.577 57.3307 219.085 57.8061C215.518 61.3721 210.476 63.4522 205.31 63.4522C194.732 63.4522 186.06 55.1317 186.06 44.9093C186.06 34.6275 194.793 26.307 205.31 26.307C210.845 26.307 215.826 28.5654 219.332 32.1908C219.516 32.4285 219.762 32.7257 220.008 32.9634L193.686 54.2996C196.392 58.8165 200.697 61.8475 205.31 62.323C205.487 62.323 205.664 62.3367 205.849 62.351C206.048 62.3664 206.254 62.3824 206.478 62.3824C210.906 62.3824 214.781 59.8268 217.056 56.2609C217.302 55.9043 217.732 55.6666 218.163 55.6666ZM243.886 26.307C238.474 26.307 233.739 29.1003 231.094 33.32V26.307L224.083 31.0022C225.99 31.0022 226.359 32.1314 226.359 33.6172V56.142C226.359 59.1136 225.067 63.4522 221.254 63.4522H236.199C232.324 63.4522 231.094 59.1136 231.094 56.142V35.4596C232.939 30.705 237.183 27.3173 242.103 27.3173C244.932 27.3173 246.961 28.922 247.576 31.7748L249.36 27.3173C247.638 26.6636 245.793 26.307 243.886 26.307ZM260.403 56.142C260.403 59.1136 261.694 63.4522 265.507 63.4522H250.563C254.437 63.4522 255.667 59.1136 255.667 56.142V33.6172C255.667 32.1314 255.36 31.0022 253.392 31.0022L260.403 26.307V56.142ZM271.7 47.2866C269.978 37.7774 274.96 28.922 282.77 27.6145C283.508 27.4956 284.185 27.4362 284.861 27.4362C285.23 27.4362 285.599 27.4362 285.968 27.4956C290.273 27.9117 294.271 30.5861 296.977 34.6275L273.853 53.4081C272.869 51.5657 272.131 49.545 271.7 47.2866ZM299.621 55.9637C299.375 55.7854 299.068 55.6666 298.822 55.6666C298.391 55.6666 297.961 55.9043 297.715 56.2609C295.439 59.8268 291.565 62.3824 287.137 62.3824C286.913 62.3824 286.706 62.3664 286.507 62.351C286.323 62.3367 286.146 62.323 285.968 62.323C281.356 61.8475 277.051 58.8165 274.345 54.2996L300.667 32.9634C300.421 32.7257 300.175 32.4285 299.99 32.1908C296.485 28.5654 291.503 26.307 285.968 26.307C275.452 26.307 266.719 34.6275 266.719 44.9093C266.719 55.1317 275.39 63.4522 285.968 63.4522C291.134 63.4522 296.177 61.3721 299.744 57.8061C300.236 57.3307 300.236 56.4392 299.621 55.9637Z" fill="url(#paint0_linear_422_231)"/>
<path fill-rule="evenodd" clip-rule="evenodd" d="M119.852 73.6759C119.852 73.6759 110.352 64.9177 90.604 69.3937C72.4371 73.5112 60.5211 83.05 47.23 73.4421C47.23 73.4421 57.9736 85.0098 73.7602 80.4473C89.5465 75.8849 104.352 66.6857 119.852 73.6759Z" fill="#79BFD6"/>
<path fill-rule="evenodd" clip-rule="evenodd" d="M193.202 71.8302C193.202 71.8302 185.85 65.0527 170.569 68.5164C156.511 71.7027 147.29 79.0842 137.004 71.6493C137.004 71.6493 145.318 80.6008 157.535 77.0702C169.751 73.5396 181.207 66.4209 193.202 71.8302Z" fill="#79BFD6"/>
<path fill-rule="evenodd" clip-rule="evenodd" d="M127.855 81.5442C127.855 81.5442 119.361 75.4262 111.171 75.0289C102.981 74.6318 94.1841 76.8141 82.6572 81.9999C82.6572 81.9999 97.3691 77.1742 108.239 77.1742C120.513 77.1742 127.855 81.5442 127.855 81.5442Z" fill="#1C8699"/>
<path fill-rule="evenodd" clip-rule="evenodd" d="M201.482 79.2614C201.482 79.2614 194.346 74.1217 187.466 73.7879C180.585 73.4543 173.195 75.2877 163.512 79.6442C163.512 79.6442 175.871 75.5902 185.003 75.5902C195.314 75.5902 201.482 79.2614 201.482 79.2614Z" fill="#1C8699"/>
<path fill-rule="evenodd" clip-rule="evenodd" d="M260.275 6.41107C262.366 7.49533 263.288 9.1092 263.507 12.0674L263.593 13.2298L263.002 14.0612C261.855 15.6732 261.375 16.9117 261.439 18.0921L261.477 18.7905L262.133 18.9321C262.529 19.0176 262.962 19.2202 263.227 19.444C263.468 19.6477 263.959 19.9081 264.318 20.0228C264.907 20.2111 265.218 20.477 265.044 20.644C265.009 20.6785 264.651 20.6149 264.25 20.5027C263.197 20.2082 262.465 20.3243 261.375 20.9585C260.626 21.394 260.336 21.49 259.529 21.5702C258.165 21.7056 256.521 21.4588 254.842 20.8666C254.522 20.7535 253.602 20.625 252.726 20.571C251.643 20.5043 251.083 20.4159 250.863 20.2771C250.207 19.8638 250.339 19.832 253.58 19.6245C256.021 19.4684 256.369 19.2475 256.684 17.654C256.916 16.4836 257.167 15.9901 258.484 14.1141C259.655 12.4465 260.237 11.1946 260.08 10.6817C260.036 10.537 259.775 10.0558 259.501 9.6123C258.928 8.68476 258.71 7.86871 259.073 8.00244C259.278 8.07819 259.279 8.05934 259.089 7.70688C258.978 7.49995 258.887 7.18469 258.887 7.00657C258.887 6.68597 258.891 6.68475 259.214 6.88864C259.64 7.15709 259.69 7.08694 259.457 6.55077C259.146 5.83453 259.159 5.83247 260.275 6.41107ZM249.981 8.7881C253.23 9.83577 255.713 11.0673 257.781 12.6571C258.181 12.9639 258.507 13.2585 258.508 13.3115C258.508 13.3645 258.164 13.8954 257.744 14.491C256.876 15.7199 256.414 16.7193 256.287 17.6381C256.165 18.5201 255.476 19.3213 255.476 18.5806C255.476 18.0728 255.101 16.1602 254.83 15.282C254.417 13.9436 253.787 12.7419 253.228 12.2257C252.699 11.7366 252.621 11.6938 250.043 10.4867C248.431 9.73194 247.424 9.04853 247.751 8.9312C247.874 8.88719 247.824 8.79321 247.577 8.60366L247.231 8.33789H247.908C248.353 8.33789 249.063 8.49193 249.981 8.7881Z" fill="#79BFD6"/>
<path fill-rule="evenodd" clip-rule="evenodd" d="M267.03 0.0496435C266.064 0.160266 264.566 0.375173 264.322 0.438359L264.035 0.512356L264.56 0.91151C265.809 1.86172 267.745 2.51819 269.954 2.74092L270.554 2.80141L271.146 3.5369C272.171 4.81199 272.959 6.50069 273.139 7.80756C273.175 8.06887 273.221 8.28276 273.242 8.28276C273.262 8.28276 273.531 8.11734 273.839 7.9151C274.147 7.71287 274.527 7.50169 274.685 7.44577C274.928 7.35957 274.899 7.4043 274.487 7.74251C274.221 7.96161 273.589 8.51873 273.082 8.98069C272.575 9.44257 271.921 9.94218 271.629 10.091C271.337 10.2398 271.082 10.3738 271.063 10.3886C270.982 10.451 271.492 11.0226 271.851 11.2733C272.266 11.5626 272.737 11.6252 273.114 11.441C273.23 11.3841 273.652 11.0291 274.051 10.6522C274.692 10.0479 274.858 9.94358 275.456 9.768C277.05 9.29998 278.516 8.28788 279.178 7.19843C279.575 6.54458 279.896 6.19268 280.33 5.93453C280.828 5.63798 280.596 5.524 279.781 5.66417C279.413 5.72754 278.948 5.74972 278.748 5.71365C278.546 5.67712 278.098 5.70005 277.738 5.76547C276.955 5.90759 276.692 5.80871 275.979 5.10528C275.397 4.5298 275.21 4.00101 275.075 2.55127L274.972 1.43293L274.294 1.08849C273.439 0.654105 272.279 0.294746 271.178 0.122802C270.404 0.00183463 267.841 -0.043365 267.03 0.0496435ZM280.444 6.66974C279.787 6.7758 279.578 6.89872 279.368 7.30375C279.252 7.52741 278.962 7.92517 278.723 8.1876C278.298 8.65526 278.295 8.66327 278.568 8.59282C279.034 8.47204 279.713 8.53271 280.118 8.7314C280.752 9.04257 281.417 9.68963 282.379 10.9316C283.147 11.9223 283.306 12.0823 283.385 11.9448C283.438 11.8551 283.5 11.1282 283.524 10.3296C283.572 8.72497 283.458 8.09432 282.997 7.41362C282.564 6.77458 281.577 6.4868 280.444 6.66974Z" fill="#79BFD6"/>
<path d="M55.043 36.8799C55.0561 42.5033 57.956 44.8531 63.3291 44.8531C57.956 44.8531 55.0561 47.2029 55.043 52.8263C55.0299 47.2029 52.1301 44.8531 46.7569 44.8531C52.1301 44.8531 55.0299 42.5033 55.043 36.8799Z" fill="#79BFD6"/>
<path d="M164.537 35.741C164.547 39.7577 166.618 41.4361 170.456 41.4361C166.618 41.4361 164.547 43.1145 164.537 47.1313C164.528 43.1145 162.457 41.4361 158.619 41.4361C162.457 41.4361 164.528 39.7577 164.537 35.741Z" fill="#79BFD6"/>
<defs>
<linearGradient id="paint0_linear_422_231" x1="150.333" y1="20.3638" x2="150.333" y2="85.8582" gradientUnits="userSpaceOnUse">
<stop stop-color="#FAE4BC"/>
<stop offset="1" stop-color="#D6A072"/>
</linearGradient>
</defs>
</svg>
