<svg width="26" height="17" viewBox="0 0 26 17" fill="none" xmlns="http://www.w3.org/2000/svg">
<path d="M25.9949 4.34242C26.0733 5.13094 25.2341 6.09492 24.1575 6.44919C22.6738 6.93705 11.5716 10.9178 6.69974 12.6674C6.02468 12.9096 5.28893 12.9549 4.58664 12.7974C3.88435 12.6399 3.24745 12.2868 2.75745 11.7834L0.107223 9.06142C0.0625411 9.01551 0.0303586 8.95991 0.0134842 8.89946C-0.0033901 8.83902 -0.00444321 8.77556 0.0104169 8.71464C0.025277 8.65372 0.0555986 8.59718 0.0987348 8.54996C0.141871 8.50274 0.196511 8.46627 0.257884 8.44375L1.15833 8.11334C1.21541 8.09209 1.27687 8.08357 1.33797 8.08843C1.39906 8.0933 1.45817 8.11142 1.51075 8.1414L4.72661 9.95882L10.894 7.33696L6.9504 1.87257C6.91616 1.82516 6.89359 1.77103 6.88435 1.71419C6.87512 1.65735 6.87947 1.59926 6.89707 1.54424C6.91467 1.48921 6.94508 1.43866 6.98604 1.39633C7.02699 1.354 7.07745 1.32098 7.13366 1.29971L7.95701 0.987735C8.18916 0.899929 8.43959 0.864552 8.68857 0.88439C8.93755 0.904228 9.17828 0.97874 9.39182 1.10206L16.4094 5.15774C16.4094 5.15774 17.7381 4.66402 20.6385 3.65481C23.539 2.6456 25.9169 3.55515 25.9949 4.34242ZM11.8341 16.3893C11.8165 16.4546 11.8174 16.5233 11.8367 16.5882C11.856 16.6531 11.8929 16.712 11.9438 16.759C11.9948 16.806 12.0578 16.8394 12.1267 16.8558C12.1955 16.8722 12.2677 16.871 12.3359 16.8524L13.3843 16.5664C13.7557 16.4649 14.0765 16.2401 14.2883 15.9328L18.7262 9.4919L13.1315 11.5468L11.8341 16.3893Z" fill="#EFCFA5"/>
</svg>
