<svg width="22" height="17" viewBox="0 0 22 17" fill="none" xmlns="http://www.w3.org/2000/svg">
<path d="M7.34975 12.5634L12.8076 14.9579L4.9161 16.5885C4.53957 16.6664 4.14735 16.6076 3.81085 16.423L2.86124 15.9016C2.79938 15.8678 2.74763 15.8184 2.71125 15.7584C2.67487 15.6984 2.65515 15.6299 2.65408 15.5599C2.65301 15.4899 2.67064 15.4208 2.70517 15.3597C2.7397 15.2987 2.78991 15.2477 2.85071 15.2121L7.34975 12.5634ZM18.6043 12.062C15.8151 10.779 14.5144 10.2146 14.5144 10.2146L12.5774 2.34517C12.5188 2.10537 12.4046 1.88239 12.244 1.69386C12.0834 1.50534 11.8807 1.35644 11.6519 1.25896L10.8417 0.911366C10.7865 0.887804 10.7265 0.876872 10.6664 0.87938C10.6063 0.881888 10.5475 0.897771 10.4944 0.925854C10.4413 0.953936 10.3953 0.993498 10.3597 1.04161C10.3241 1.08972 10.2999 1.14514 10.2889 1.20378L9.01749 7.96136L2.73585 5.58775L1.81824 2.01019C1.80336 1.95176 1.77526 1.89745 1.73607 1.85138C1.69687 1.80531 1.64761 1.76869 1.59202 1.74428L0.715186 1.35889C0.655353 1.33261 0.589942 1.32124 0.524657 1.32576C0.459372 1.33029 0.396195 1.35058 0.340638 1.38486C0.28508 1.41913 0.238828 1.46636 0.205917 1.52242C0.173005 1.57848 0.154433 1.64167 0.15182 1.70648L0.00275836 5.55039C-0.0253147 6.26156 0.161418 6.96485 0.539051 7.57023C0.916683 8.1756 1.46803 8.65551 2.1225 8.94851C6.84601 11.0666 17.6056 15.889 19.0112 16.5655C20.0314 17.0565 21.3348 16.9344 21.864 16.3013C22.3931 15.6683 21.3931 13.3451 18.6043 12.062Z" fill="#EFCFA5"/>
</svg>
