<svg width="44" height="40" viewBox="0 0 44 40" fill="none" xmlns="http://www.w3.org/2000/svg">
<path d="M0.88 32.8889C1.584 32.8889 1.848 33.0667 2.288 33.5111L2.376 33.6C2.728 33.9555 3.608 34.6667 5.016 34.6667C5.016 34.6667 5.016 34.6667 5.104 34.6667C6.512 34.6667 7.392 33.8667 7.744 33.6L7.832 33.5111C8.272 33.1555 8.536 32.9778 9.24 32.8889C9.944 32.8889 10.208 33.0667 10.648 33.5111L10.736 33.6C11.088 33.9555 11.968 34.6667 13.376 34.6667C13.464 34.6667 13.464 34.6667 13.464 34.6667C14.872 34.6667 15.664 33.8667 16.104 33.6L16.192 33.5111C16.632 33.1555 16.896 32.9778 17.6 32.8889C17.776 32.8889 17.864 32.8889 18.04 32.8889C18.48 32.9778 19.008 32.6222 19.096 32.1778C19.184 31.7333 18.832 31.2 18.392 31.1111C18.128 31.1111 17.864 31.0222 17.6 31.0222C16.192 31.0222 15.312 31.8222 14.96 32.0889V32.2667C14.52 32.6222 14.256 32.8889 13.552 32.8889C12.848 32.8889 12.584 32.7111 12.144 32.2667L12.056 32.1778C11.44 31.7333 10.56 31.1111 9.416 31.1111C9.328 31.1111 9.328 31.1111 9.328 31.1111C8.008 31.1111 7.128 31.9111 6.688 32.1778L6.6 32.2667C6.16 32.6222 5.896 32.8 5.192 32.8889C4.488 32.8889 4.224 32.7111 3.784 32.2667L3.52 32.1778C3.168 31.8222 2.288 31.1111 0.88 31.1111C0.44 31.1111 0 31.4667 0 32C0 32.4444 0.44 32.8889 0.88 32.8889Z" fill="#180F0B"/>
<path d="M21.3839 34.5779C21.8239 34.5779 22.1759 34.3112 22.2639 33.8668C22.3519 33.4223 22.0879 32.889 21.5599 32.8001C21.1199 32.7112 20.5919 33.0668 20.5039 33.5112C20.5039 33.7779 20.5039 33.9556 20.5919 34.2223C20.7679 34.4001 20.9439 34.5779 21.1199 34.5779C21.2079 34.5779 21.2959 34.5779 21.3839 34.5779Z" fill="#180F0B"/>
<path d="M25.0801 33.2446C25.4321 32.9779 25.6081 32.889 26.2241 32.889C26.9281 32.889 27.1921 33.0668 27.6321 33.5112L27.7201 33.6001C28.0721 33.9557 28.9521 34.6668 30.3601 34.6668C30.3601 34.6668 30.4481 34.6668 30.5361 34.6668C31.7681 34.6668 32.5601 34.0446 33.1761 33.6001L33.2641 33.5112C33.7041 33.1557 33.9681 32.9779 34.6721 32.889C35.3761 32.889 35.6401 33.0668 36.0801 33.5112L36.1681 33.6001C36.5201 33.9557 37.4001 34.6668 38.8081 34.6668C38.8081 34.6668 38.8081 34.6668 38.8961 34.6668H38.9841C40.0401 34.6668 40.7441 34.2223 41.1841 33.9557C41.3601 33.8668 41.5361 33.689 41.6241 33.6001C41.8881 33.4223 42.0641 33.2446 42.3281 33.0668C42.7681 32.889 42.9441 32.3557 42.6801 31.9112C42.5041 31.4668 41.9761 31.289 41.5361 31.4668C41.0961 31.7334 40.7441 32.0001 40.4801 32.1779C40.3921 32.2668 40.2161 32.3557 40.1281 32.4446C39.7761 32.7112 39.5121 32.8001 38.9841 32.8001C38.2801 32.8001 38.0161 32.6223 37.5761 32.1779L37.4881 32.089C36.8721 31.5557 36.0801 31.0223 34.8481 31.0223C34.8481 31.0223 34.8481 31.0223 34.7601 31.0223C33.3521 30.9334 32.4721 31.8223 32.1201 32.089L32.0321 32.1779C31.5921 32.5334 31.3281 32.7112 30.6241 32.8001C29.9201 32.8001 29.6561 32.6223 29.2161 32.1779L29.1281 32.089C28.7761 31.7334 27.8961 31.0223 26.4881 31.0223C26.4881 31.0223 26.4881 31.0223 26.4001 31.0223C25.3441 31.0223 24.6401 31.3779 24.2001 31.7334C23.8481 32.0001 23.7601 32.6223 24.0241 32.9779C24.1121 33.4223 24.6401 33.5112 25.0801 33.2446Z" fill="#180F0B"/>
<path d="M43.12 36.4443C41.712 36.4443 41.008 37.0666 40.48 37.511C39.952 37.9554 39.6 38.2221 38.896 38.2221C38.192 38.2221 37.84 37.9554 37.312 37.511C36.696 37.0666 35.992 36.4443 34.672 36.4443C33.264 36.4443 32.56 37.0666 32.032 37.511C31.504 37.9554 31.24 38.2221 30.448 38.2221C29.744 38.2221 29.392 37.9554 28.864 37.511C28.248 37.0666 27.544 36.4443 26.224 36.4443C24.904 36.4443 24.112 37.0666 23.584 37.511C23.056 37.9554 22.704 38.2221 22 38.2221C21.296 38.2221 20.944 37.9554 20.416 37.511C19.8 37.0666 19.096 36.4443 17.776 36.4443C16.368 36.4443 15.664 37.0666 15.136 37.511C14.608 37.9554 14.344 38.2221 13.552 38.2221C12.76 38.2221 12.496 37.9554 11.968 37.511C11.352 37.0666 10.648 36.4443 9.328 36.4443C8.008 36.4443 7.216 37.0666 6.688 37.511C6.16 37.9554 5.808 38.2221 5.104 38.2221C4.4 38.2221 4.048 37.9554 3.52 37.511C2.992 37.0666 2.288 36.4443 0.88 36.4443C0.352 36.4443 0 36.7999 0 37.3332C0 37.8666 0.352 38.2221 0.88 38.2221C1.584 38.2221 1.936 38.4888 2.464 38.9332C3.08 39.3777 3.784 39.9999 5.104 39.9999C6.424 39.9999 7.216 39.3777 7.744 38.9332C8.272 38.4888 8.536 38.2221 9.328 38.2221C10.032 38.2221 10.384 38.4888 10.912 38.9332C11.528 39.3777 12.232 39.9999 13.552 39.9999C14.872 39.9999 15.664 39.3777 16.192 38.9332C16.72 38.4888 16.984 38.2221 17.776 38.2221C18.568 38.2221 18.832 38.4888 19.36 38.9332C19.976 39.3777 20.68 39.9999 22 39.9999C23.32 39.9999 24.112 39.3777 24.64 38.9332C25.168 38.4888 25.432 38.2221 26.224 38.2221C27.016 38.2221 27.28 38.4888 27.808 38.9332C28.424 39.3777 29.128 39.9999 30.448 39.9999C31.856 39.9999 32.56 39.3777 33.088 38.9332C33.616 38.4888 33.88 38.2221 34.672 38.2221C35.376 38.2221 35.728 38.4888 36.256 38.9332C36.872 39.3777 37.576 39.9999 38.896 39.9999C40.304 39.9999 41.008 39.3777 41.536 38.9332C42.064 38.4888 42.328 38.2221 43.12 38.2221C43.648 38.2221 44 37.8666 44 37.3332C44 36.7999 43.648 36.4443 43.12 36.4443Z" fill="#180F0B"/>
<path d="M22.0001 1.77778C22.4861 1.77778 22.8801 1.37981 22.8801 0.888889C22.8801 0.397969 22.4861 0 22.0001 0C21.5141 0 21.1201 0.397969 21.1201 0.888889C21.1201 1.37981 21.5141 1.77778 22.0001 1.77778Z" fill="#180F0B"/>
<path d="M38.456 24.6222L43.736 19.2889C44.088 18.9333 44.088 18.4 43.736 18.0444L41.096 15.3778C40.744 15.0222 40.216 15.0222 39.864 15.3778L39.6 15.6444V10.6667C39.6 10.1333 39.248 9.77778 38.72 9.77778H34.32V5.33333H36.96C37.224 5.33333 37.4 5.24444 37.576 5.06667C37.752 4.88889 37.84 4.71111 37.84 4.44444V0.888889C37.84 0.622222 37.752 0.444445 37.576 0.266667C37.4 0.0888891 37.224 0 36.96 0H25.52C25.08 0 24.64 0.355556 24.64 0.888889C24.64 1.33333 25.08 1.77778 25.52 1.77778H36.08V3.55556H7.92V1.77778H18.48C18.92 1.77778 19.36 1.33333 19.36 0.888889C19.36 0.355556 18.92 0 18.48 0H7.04C6.776 0 6.6 0.0888891 6.424 0.266667C6.248 0.444445 6.16 0.622222 6.16 0.888889V4.44444C6.16 4.71111 6.248 4.88889 6.424 5.06667C6.6 5.24444 6.776 5.33333 7.04 5.33333H9.68V9.77778H5.28C4.752 9.77778 4.4 10.1333 4.4 10.6667V27.5556H0.88C0.352 27.5556 0 27.9111 0 28.4444C0 28.9778 0.352 29.3333 0.88 29.3333H43.12C43.648 29.3333 44 28.9778 44 28.4444C44 27.9111 43.648 27.5556 43.12 27.5556H39.952L37.312 24.8889H37.84C38.104 24.8889 38.28 24.8 38.456 24.6222ZM37.84 11.5556V17.4222L35.728 19.5556H34.32V11.5556H37.84ZM32.56 5.33333V19.5556H30.8V10.6667C30.8 10.1333 30.448 9.77778 29.92 9.77778H14.08C13.552 9.77778 13.2 10.1333 13.2 10.6667V27.5556H11.44V5.33333H32.56ZM17.6 19.5556C17.072 19.5556 16.72 19.9111 16.72 20.4444V24C16.72 24.5333 17.072 24.8889 17.6 24.8889H20.768L18.128 27.5556H14.96V21.6889L24.992 11.5556H29.04V19.5556H17.6ZM29.04 24.8889V27.5556H20.592L23.232 24.8889H29.04ZM32.56 24.8889V27.5556H30.8V24.8889H32.56ZM22.528 11.5556L14.96 19.2V17.2444L20.592 11.5556H22.528ZM14.96 14.7556V11.5556H18.128L14.96 14.7556ZM6.16 11.5556H9.68V27.5556H6.16V11.5556ZM37.488 27.5556H34.32V24.8889H34.848L37.488 27.5556ZM18.48 23.1111V21.3333H36.08C36.344 21.3333 36.52 21.2444 36.696 21.0667L39.336 18.4L40.48 17.2444L41.888 18.6667L37.488 23.1111H18.48Z" fill="#180F0B"/>
</svg>
