<svg width="19" height="20" viewBox="0 0 19 20" fill="none" xmlns="http://www.w3.org/2000/svg">
<path fill-rule="evenodd" clip-rule="evenodd" d="M1.83418 19.8629L0 16.0613L19 14.9768L14.2821 20L1.83418 19.8629ZM12.8473 16.4584C11.591 16.4584 11.5288 18.3814 12.8694 18.3814C14.0915 18.3874 14.0995 16.4584 12.8473 16.4584ZM7.67786 14.5354L7.3327 0.163274L8.57087 0L8.55883 1.20943L10.6178 1.07438L10.6057 1.97339L13.2145 2.65269L10.1542 4.22092L10.0719 3.39649L8.53274 3.5638L8.51468 5.31344L15.4962 14.1302L7.67786 14.5354ZM6.03834 6.154L6.57615 14.5354L2.55059 14.6724L6.03834 6.154Z" fill="#EFCFA5"/>
</svg>
