<svg width="12" height="12" viewBox="0 0 12 12" fill="none" xmlns="http://www.w3.org/2000/svg">
<path opacity="0.5" fill-rule="evenodd" clip-rule="evenodd" d="M6 2.4C5.84087 2.4 5.68826 2.33679 5.57574 2.22426C5.46321 2.11174 5.4 1.95913 5.4 1.8V0.6C5.4 0.44087 5.46321 0.288258 5.57574 0.175736C5.68826 0.0632141 5.84087 0 6 0C6.15913 0 6.31174 0.0632141 6.42426 0.175736C6.53679 0.288258 6.6 0.44087 6.6 0.6V1.8C6.6 1.95913 6.53679 2.11174 6.42426 2.22426C6.31174 2.33679 6.15913 2.4 6 2.4ZM6 12C5.84087 12 5.68826 11.9368 5.57574 11.8243C5.46321 11.7117 5.4 11.5591 5.4 11.4V10.2C5.4 10.0409 5.46321 9.88826 5.57574 9.77574C5.68826 9.66321 5.84087 9.6 6 9.6C6.15913 9.6 6.31174 9.66321 6.42426 9.77574C6.53679 9.88826 6.6 10.0409 6.6 10.2V11.4C6.6 11.5591 6.53679 11.7117 6.42426 11.8243C6.31174 11.9368 6.15913 12 6 12ZM9.77574 6.42426C9.88826 6.53679 10.0409 6.6 10.2 6.6H11.4C11.5591 6.6 11.7117 6.53679 11.8243 6.42426C11.9368 6.31174 12 6.15913 12 6C12 5.84087 11.9368 5.68826 11.8243 5.57574C11.7117 5.46321 11.5591 5.4 11.4 5.4H10.2C10.0409 5.4 9.88826 5.46321 9.77574 5.57574C9.66321 5.68826 9.6 5.84087 9.6 6C9.6 6.15913 9.66321 6.31174 9.77574 6.42426ZM0.6 6.6C0.44087 6.6 0.288258 6.53679 0.175736 6.42426C0.0632141 6.31174 0 6.15913 0 6C0 5.84087 0.0632141 5.68826 0.175736 5.57574C0.288258 5.46321 0.44087 5.4 0.6 5.4H1.8C1.95913 5.4 2.11174 5.46321 2.22426 5.57574C2.33679 5.68826 2.4 5.84087 2.4 6C2.4 6.15913 2.33679 6.31174 2.22426 6.42426C2.11174 6.53679 1.95913 6.6 1.8 6.6H0.6ZM8.63671 3.52884C8.73536 3.59477 8.85134 3.62998 8.96999 3.63C9.12911 3.62997 9.28169 3.56673 9.39419 3.4542L10.2426 2.6058C10.2999 2.55046 10.3456 2.48425 10.3771 2.41105C10.4085 2.33784 10.425 2.25911 10.4257 2.17944C10.4264 2.09978 10.4113 2.02077 10.3811 1.94703C10.3509 1.87329 10.3064 1.8063 10.25 1.74997C10.1937 1.69363 10.1267 1.64908 10.053 1.61891C9.97922 1.58874 9.90022 1.57356 9.82055 1.57425C9.74088 1.57495 9.66215 1.5915 9.58895 1.62294C9.51574 1.65439 9.44954 1.7001 9.39419 1.7574L8.54579 2.6058C8.4619 2.68971 8.40478 2.79661 8.38164 2.91298C8.3585 3.02936 8.37038 3.14998 8.41578 3.2596C8.46118 3.36922 8.53807 3.46291 8.63671 3.52884ZM2.18161 10.4184C2.06296 10.4184 1.94698 10.3832 1.84834 10.3172C1.74969 10.2513 1.67281 10.1576 1.6274 10.048C1.582 9.93837 1.57012 9.81775 1.59326 9.70138C1.6164 9.585 1.67352 9.47811 1.75741 9.39419L2.60581 8.5458C2.71897 8.4365 2.87053 8.37602 3.02785 8.37739C3.18517 8.37876 3.33566 8.44186 3.4469 8.5531C3.55815 8.66435 3.62125 8.81484 3.62261 8.97215C3.62398 9.12947 3.56351 9.28103 3.45421 9.39419L2.60581 10.2426C2.49331 10.3551 2.34073 10.4184 2.18161 10.4184ZM9.39419 10.2426C9.50669 10.3551 9.65928 10.4184 9.8184 10.4184C9.93705 10.4184 10.053 10.3832 10.1517 10.3172C10.2503 10.2513 10.3272 10.1576 10.3726 10.048C10.418 9.93837 10.4299 9.81775 10.4067 9.70138C10.3836 9.585 10.3265 9.47811 10.2426 9.39419L9.39419 8.5458C9.28103 8.4365 9.12947 8.37602 8.97215 8.37739C8.81484 8.37876 8.66435 8.44186 8.5531 8.5531C8.44186 8.66435 8.37876 8.81484 8.37739 8.97215C8.37602 9.12947 8.4365 9.28103 8.5458 9.39419L9.39419 10.2426ZM3.03002 3.63C2.8709 3.62996 2.71831 3.56673 2.60582 3.4542L1.75742 2.6058C1.64812 2.49264 1.58764 2.34108 1.58901 2.18376C1.59038 2.02644 1.65348 1.87595 1.76473 1.76471C1.87597 1.65346 2.02646 1.59036 2.18378 1.58899C2.34109 1.58763 2.49266 1.6481 2.60582 1.7574L3.45422 2.6058C3.5381 2.68971 3.59523 2.79661 3.61837 2.91298C3.64151 3.02935 3.62963 3.14997 3.58422 3.25959C3.53882 3.36921 3.46194 3.46291 3.36329 3.52884C3.26465 3.59477 3.14867 3.62997 3.03002 3.63ZM4.33329 8.49441C4.82664 8.82405 5.40666 9 6 9C6.79536 8.99905 7.55787 8.68267 8.12027 8.12027C8.68267 7.55787 8.99905 6.79536 9 6C9 5.40666 8.82405 4.82664 8.49441 4.33329C8.16477 3.83994 7.69623 3.45543 7.14805 3.22836C6.59987 3.0013 5.99667 2.94189 5.41473 3.05765C4.83279 3.1734 4.29824 3.45912 3.87868 3.87868C3.45912 4.29824 3.1734 4.83279 3.05765 5.41473C2.94189 5.99667 3.0013 6.59987 3.22836 7.14805C3.45543 7.69623 3.83994 8.16477 4.33329 8.49441ZM4.99997 4.50336C5.29598 4.30557 5.64399 4.2 6 4.2C6.47739 4.2 6.93523 4.38964 7.27279 4.72721C7.61036 5.06477 7.8 5.52261 7.8 6C7.8 6.35601 7.69443 6.70402 7.49665 7.00003C7.29886 7.29604 7.01774 7.52675 6.68883 7.66298C6.35992 7.79922 5.998 7.83487 5.64884 7.76541C5.29967 7.69596 4.97894 7.52453 4.72721 7.27279C4.47547 7.02106 4.30404 6.70033 4.23459 6.35116C4.16513 6.002 4.20078 5.64008 4.33702 5.31117C4.47326 4.98226 4.70397 4.70114 4.99997 4.50336Z" fill="#180F0B"/>
</svg>
