<svg width="10" height="8" viewBox="0 0 10 8" fill="none" xmlns="http://www.w3.org/2000/svg">
<path opacity="0.5" fill-rule="evenodd" clip-rule="evenodd" d="M9.5 2C9.25098 1.99513 9.00649 1.93254 8.78577 1.81715C8.56504 1.70175 8.37411 1.53671 8.228 1.335C8 1.0815 7.9085 1 7.7 1C7.4915 1 7.4 1.0815 7.1705 1.3345C7.0277 1.53945 6.83749 1.70685 6.61606 1.82245C6.39463 1.93804 6.14854 1.99841 5.89875 1.99841C5.64896 1.99841 5.40287 1.93804 5.18144 1.82245C4.96001 1.70685 4.7698 1.53945 4.627 1.3345C4.4 1.0815 4.3065 1 4.097 1C3.8875 1 3.797 1.0815 3.5695 1.3345C3.42375 1.53602 3.23325 1.701 3.01298 1.81647C2.7927 1.93195 2.54865 1.99477 2.3 2C2.05084 1.99523 1.80619 1.93263 1.58536 1.81714C1.36453 1.70165 1.17355 1.53642 1.0275 1.3345C0.8 1.0815 0.709 1 0.5 1C0.367392 1 0.240215 0.947321 0.146447 0.853553C0.0526784 0.759785 0 0.632608 0 0.5C0 0.367392 0.0526784 0.240215 0.146447 0.146447C0.240215 0.0526785 0.367392 0 0.5 0C0.748907 0.00500191 0.993255 0.0677125 1.21381 0.183195C1.43436 0.298677 1.6251 0.463778 1.771 0.6655C2 0.9185 2.089 1 2.3 1C2.511 1 2.6 0.9185 2.8275 0.6655C2.97325 0.463978 3.16375 0.298998 3.38402 0.183526C3.6043 0.0680528 3.84835 0.00523231 4.097 0C4.34596 0.00507859 4.59035 0.0678192 4.81098 0.183292C5.0316 0.298765 5.22244 0.463824 5.3685 0.6655C5.5955 0.9185 5.687 1 5.896 1C6.105 1 6.196 0.9185 6.426 0.665C6.56877 0.45985 6.75902 0.292267 6.98055 0.176539C7.20208 0.0608107 7.44831 0.000370026 7.69825 0.000370026C7.94819 0.000370026 8.19442 0.0608107 8.41595 0.176539C8.63748 0.292267 8.82773 0.45985 8.9705 0.665C9.2 0.9185 9.29 1 9.5 1C9.63261 1 9.75979 1.05268 9.85355 1.14645C9.94732 1.24021 10 1.36739 10 1.5C10 1.63261 9.94732 1.75979 9.85355 1.85355C9.75979 1.94732 9.63261 2 9.5 2ZM9.5 5C9.25098 4.99513 9.00649 4.93254 8.78577 4.81715C8.56504 4.70175 8.37411 4.53671 8.228 4.335C8 4.0815 7.9085 4 7.7 4C7.4915 4 7.4 4.0815 7.1705 4.3345C7.0277 4.53945 6.83749 4.70685 6.61606 4.82245C6.39463 4.93804 6.14854 4.99841 5.89875 4.99841C5.64896 4.99841 5.40287 4.93804 5.18144 4.82245C4.96001 4.70685 4.7698 4.53945 4.627 4.3345C4.4 4.0815 4.3065 4 4.097 4C3.8875 4 3.797 4.0815 3.5695 4.3345C3.42375 4.53602 3.23325 4.701 3.01298 4.81647C2.7927 4.93195 2.54865 4.99477 2.3 5C2.05109 4.995 1.80675 4.93229 1.58619 4.81681C1.36564 4.70132 1.1749 4.53622 1.029 4.3345C0.8 4.0815 0.709 4 0.5 4C0.367392 4 0.240215 3.94732 0.146447 3.85355C0.0526784 3.75979 0 3.63261 0 3.5C0 3.36739 0.0526784 3.24021 0.146447 3.14645C0.240215 3.05268 0.367392 3 0.5 3C0.748907 3.005 0.993255 3.06771 1.21381 3.18319C1.43436 3.29868 1.6251 3.46378 1.771 3.6655C2 3.9185 2.089 4 2.3 4C2.511 4 2.6 3.9185 2.8275 3.6655C2.97325 3.46398 3.16375 3.299 3.38402 3.18353C3.6043 3.06805 3.84835 3.00523 4.097 3C4.34596 3.00508 4.59035 3.06782 4.81098 3.18329C5.0316 3.29876 5.22244 3.46382 5.3685 3.6655C5.5955 3.9185 5.687 4 5.896 4C6.105 4 6.196 3.9185 6.426 3.665C6.56877 3.45985 6.75902 3.29227 6.98055 3.17654C7.20208 3.06081 7.44831 3.00037 7.69825 3.00037C7.94819 3.00037 8.19442 3.06081 8.41595 3.17654C8.63748 3.29227 8.82773 3.45985 8.9705 3.665C9.2 3.9185 9.29 4 9.5 4C9.63261 4 9.75979 4.05268 9.85355 4.14645C9.94732 4.24021 10 4.36739 10 4.5C10 4.63261 9.94732 4.75979 9.85355 4.85355C9.75979 4.94732 9.63261 5 9.5 5ZM8.78577 7.81715C9.00649 7.93254 9.25098 7.99513 9.5 8C9.63261 8 9.75979 7.94732 9.85355 7.85355C9.94732 7.75979 10 7.63261 10 7.5C10 7.36739 9.94732 7.24021 9.85355 7.14645C9.75979 7.05268 9.63261 7 9.5 7C9.29 7 9.2 6.9185 8.9705 6.665C8.82773 6.45985 8.63748 6.29227 8.41595 6.17654C8.19442 6.06081 7.94819 6.00037 7.69825 6.00037C7.44831 6.00037 7.20208 6.06081 6.98055 6.17654C6.75902 6.29227 6.56877 6.45985 6.426 6.665C6.196 6.9185 6.105 7 5.896 7C5.687 7 5.5955 6.9185 5.3685 6.6655C5.22244 6.46382 5.0316 6.29876 4.81098 6.18329C4.59035 6.06782 4.34596 6.00508 4.097 6C3.84835 6.00523 3.6043 6.06805 3.38402 6.18353C3.16375 6.299 2.97325 6.46398 2.8275 6.6655C2.6 6.9185 2.511 7 2.3 7C2.089 7 2 6.9185 1.771 6.6655C1.6251 6.46378 1.43436 6.29868 1.21381 6.18319C0.993255 6.06771 0.748907 6.005 0.5 6C0.367392 6 0.240215 6.05268 0.146447 6.14645C0.0526784 6.24021 0 6.36739 0 6.5C0 6.63261 0.0526784 6.75979 0.146447 6.85355C0.240215 6.94732 0.367392 7 0.5 7C0.709 7 0.8 7.0815 1.029 7.3345C1.1749 7.53622 1.36564 7.70132 1.58619 7.81681C1.80675 7.93229 2.05109 7.995 2.3 8C2.54865 7.99477 2.7927 7.93195 3.01298 7.81647C3.23325 7.701 3.42375 7.53602 3.5695 7.3345C3.797 7.0815 3.8875 7 4.097 7C4.3065 7 4.4 7.0815 4.627 7.3345C4.7698 7.53945 4.96001 7.70685 5.18144 7.82245C5.40287 7.93804 5.64896 7.99841 5.89875 7.99841C6.14854 7.99841 6.39463 7.93804 6.61606 7.82245C6.83749 7.70685 7.0277 7.53945 7.1705 7.3345C7.4 7.0815 7.4915 7 7.7 7C7.9085 7 8 7.0815 8.228 7.335C8.37411 7.53671 8.56504 7.70175 8.78577 7.81715Z" fill="#180F0B"/>
</svg>
