<svg width="26" height="24" viewBox="0 0 26 24" fill="none" xmlns="http://www.w3.org/2000/svg">
<path fill-rule="evenodd" clip-rule="evenodd" d="M11.8052 0.0546979C10.2914 0.303408 8.81032 0.950204 7.60613 1.88839C7.4248 2.02965 7.30029 2.08851 7.18264 2.08851C6.61548 2.08851 5.48635 2.40259 4.74965 2.76526C2.95736 3.64754 1.9099 5.17021 1.66337 7.25166C1.59059 7.8659 1.62815 9.0567 1.75977 10.3092L1.84718 11.1412L1.59054 11.2737C-0.131619 12.1624 -0.536457 14.4196 0.777155 15.8088C1.26803 16.328 1.75215 16.5935 2.46887 16.737L2.73766 16.7907L2.9322 17.2673C4.07445 20.0653 6.39929 22.3011 9.25729 23.3501C11.2586 24.0847 13.5853 24.2021 15.6799 23.6741C17.5667 23.1986 19.2081 22.2702 20.6275 20.8759C21.7249 19.798 22.5047 18.6444 23.0668 17.2673L23.2614 16.7907L23.5302 16.737C24.2049 16.602 24.6524 16.3709 25.1261 15.9129C26.0284 15.0406 26.2559 13.707 25.6966 12.5688C25.488 12.1446 24.8444 11.4923 24.4235 11.2788C24.1911 11.1609 24.1378 11.1116 24.1557 11.0308C24.2397 10.6531 24.3519 9.06482 24.354 8.22486C24.3573 6.88343 24.2103 6.17161 23.7243 5.17562C23.1575 4.01427 22.0361 2.8374 20.7432 2.04698C19.1953 1.10068 17.3105 0.452434 15.161 0.126982C14.3027 -0.00295881 12.4051 -0.0438344 11.8052 0.0546979ZM9.38328 8.33957C11.4184 10.009 15.0029 10.9647 19.9257 11.1505C20.5346 11.1735 21.0416 11.201 21.0524 11.2115C21.0631 11.2221 21.3037 12.0291 21.5871 13.0049L22.1024 14.779L21.9944 15.2761C21.6295 16.9556 20.6315 18.6999 19.3575 19.8845C16.5289 22.5146 12.4815 23.1464 9.0101 21.4997C7.13228 20.6089 5.64948 19.1496 4.73436 17.2916C4.38593 16.5843 4.11419 15.8218 3.98231 15.1813L3.89846 14.7742L4.43335 12.9305C4.72755 11.9164 4.98577 11.0721 5.00716 11.0543C5.02856 11.0365 5.29765 10.9255 5.60512 10.8076C6.68353 10.3944 7.47079 9.90377 8.1741 9.20678C8.44101 8.94224 8.74731 8.58493 8.85469 8.41271C8.96208 8.24054 9.05914 8.09963 9.07037 8.09963C9.0816 8.09963 9.22243 8.20758 9.38328 8.33957ZM8.13116 12.3491C7.79488 12.4675 7.53325 12.671 7.32103 12.9794C7.10453 13.2939 7.03724 13.5587 7.06525 13.9855C7.10336 14.5659 7.42688 15.0409 7.96009 15.2989C8.20302 15.4165 8.31106 15.438 8.65436 15.437C9.18579 15.4353 9.50291 15.3007 9.84539 14.9313C10.4244 14.3068 10.4244 13.4138 9.84539 12.7893C9.41006 12.3198 8.71885 12.1424 8.13116 12.3491ZM16.8873 12.3243C16.5535 12.4334 16.3851 12.5381 16.1648 12.7737C15.9035 13.0531 15.8222 13.2083 15.746 13.5723C15.6003 14.2694 15.9993 15.0139 16.684 15.3223C17.0698 15.496 17.6525 15.486 18.0389 15.2989C18.3549 15.146 18.6241 14.8828 18.8034 14.5513C18.9013 14.3705 18.9198 14.2603 18.9198 13.8603C18.9198 13.3272 18.8444 13.1258 18.5068 12.7575C18.138 12.3551 17.3987 12.1573 16.8873 12.3243ZM9.91054 17.7005C9.65944 17.8225 9.52639 18.0409 9.50535 18.3654C9.48329 18.706 9.56415 18.8508 9.96482 19.1882C10.8196 19.908 12.1356 20.3321 13.2749 20.2549C14.2476 20.1889 15.2646 19.8094 15.9462 19.258C16.3743 18.9117 16.5061 18.717 16.5061 18.4314C16.5061 17.9896 16.2372 17.6759 15.8184 17.6295C15.5002 17.5941 15.4005 17.6319 15.0158 17.9341C13.8109 18.8805 12.2562 18.9071 11.0752 18.0016C10.9253 17.8866 10.7424 17.7532 10.6687 17.7051C10.5 17.5951 10.1322 17.5928 9.91054 17.7005Z" fill="url(#paint0_linear_446_212)"/>
<defs>
<linearGradient id="paint0_linear_446_212" x1="0" y1="0" x2="23.9233" y2="25.9169" gradientUnits="userSpaceOnUse">
<stop stop-color="#F9E2BA"/>
<stop offset="1" stop-color="#D7A375"/>
</linearGradient>
</defs>
</svg>
