<svg width="32" height="32" viewBox="0 0 32 32" fill="none" xmlns="http://www.w3.org/2000/svg">
<path fill-rule="evenodd" clip-rule="evenodd" d="M9.52081 4.04773C8.70814 4.21097 7.97872 4.7717 7.6233 5.50632C7.32295 6.127 7.33662 5.78228 7.33662 12.7491V19.1734L7.44913 19.5338C7.73546 20.451 8.55458 21.2091 9.46392 21.3986C9.64251 21.4358 12.4136 21.4486 18.3084 21.4393L26.8928 21.4257L27.1955 21.3106C27.8274 21.0704 28.3649 20.5974 28.6693 20.0138C29.0145 19.3517 28.9992 19.6891 29 12.7388C29.0005 8.37749 28.9837 6.37491 28.945 6.18653C28.7908 5.43583 28.1983 4.64393 27.5403 4.3092C26.8917 3.97923 27.4245 3.99669 18.156 4.00201C13.5184 4.00468 9.63256 4.02525 9.52081 4.04773ZM26.6681 6.34644L26.8166 6.49607V10.4774C26.8166 12.6716 26.7972 14.437 26.7733 14.4102C26.7496 14.3834 25.9766 13.4747 25.0555 12.3908C24.1346 11.3068 23.2962 10.3452 23.1926 10.2539C22.4971 9.64116 21.4379 9.63773 20.7476 10.246C20.639 10.3417 19.6378 11.5222 18.5227 12.8694L16.4952 15.3189L16.3097 15.1484C16.2076 15.0547 15.8499 14.7077 15.5146 14.3776C14.7299 13.6047 14.5103 13.4905 13.813 13.4932C13.0151 13.4962 13.0034 13.5044 11.1082 15.4037L9.49541 17.0198V11.8082C9.49541 7.03146 9.50247 6.58448 9.58024 6.45179C9.62692 6.37219 9.71261 6.28384 9.77072 6.25543C9.84041 6.22134 12.7104 6.20255 18.198 6.2003L26.5196 6.19682L26.6681 6.34644ZM12.2003 7.35089C11.7934 7.4613 11.5341 7.61497 11.2213 7.93086C10.3904 8.77012 10.3704 10.0732 11.1752 10.9308C11.6193 11.4041 12.1161 11.6229 12.7463 11.6229C13.3723 11.6229 13.8736 11.4038 14.3091 10.9397C14.6255 10.6025 14.7646 10.3322 14.8608 9.86783C15.1808 8.32098 13.7196 6.93861 12.2003 7.35089ZM4.34483 16.1279C3.40004 19.305 3.02258 20.6462 3.00547 20.8875C2.93847 21.8309 3.49361 22.805 4.33234 23.2156C4.60953 23.3513 6.65164 23.9207 12.9749 25.6255C17.5287 26.8532 21.3793 27.8905 21.5318 27.9306C21.8552 28.0156 22.4264 28.0238 22.7529 27.948C23.3516 27.809 24.0058 27.3148 24.2916 26.7855C24.3664 26.647 24.6569 25.7991 24.9371 24.9011C25.2173 24.0032 25.4592 23.2282 25.4747 23.179C25.5013 23.0939 25.0929 23.0894 17.3848 23.089C9.48088 23.0887 9.25581 23.086 8.84899 22.9877C7.35968 22.6279 6.25788 21.5297 5.82302 19.9716C5.71772 19.5943 5.71376 19.4671 5.68745 15.6435L5.66038 11.7041L4.34483 16.1279Z" fill="url(#paint0_linear_446_233)"/>
<defs>
<linearGradient id="paint0_linear_446_233" x1="3" y1="4" x2="26.9233" y2="29.9169" gradientUnits="userSpaceOnUse">
<stop stop-color="#F9E2BA"/>
<stop offset="1" stop-color="#D7A375"/>
</linearGradient>
</defs>
</svg>
