<svg width="24" height="24" viewBox="0 0 24 24" fill="none" xmlns="http://www.w3.org/2000/svg">
<path fill-rule="evenodd" clip-rule="evenodd" d="M15.2483 0.0348636C14.4286 0.285176 14.013 1.20487 14.3678 1.98351C14.4811 2.23232 14.8695 2.63589 18.1215 5.88366C20.7054 8.46411 21.8096 9.53669 21.9602 9.61219C22.2487 9.75671 22.7586 9.78907 23.078 9.68304C23.3946 9.57796 23.7104 9.29145 23.8708 8.96375C23.9766 8.74767 24.0011 8.63451 24 8.36678C23.9976 7.80676 23.9326 7.71228 22.6993 6.47537L21.6109 5.38388L22.4394 4.55025C23.6543 3.32799 23.6704 3.4658 22.1315 1.91913C20.5569 0.336544 20.6848 0.353213 19.4578 1.5713L18.6231 2.39985L17.5315 1.31094C16.3352 0.117691 16.2145 0.0318585 15.691 0.00255916C15.5344 -0.00622126 15.3352 0.00833452 15.2483 0.0348636ZM11.4325 2.00778C10.9799 2.07488 10.6156 2.34289 10.4053 2.76346C10.2854 3.00335 10.2618 3.1058 10.2621 3.38373C10.263 4.03103 9.97835 3.711 15.1383 8.86538C18.3605 12.0842 19.8401 13.5312 19.987 13.6074C20.1628 13.6987 20.2697 13.7172 20.6212 13.7172C21.1044 13.7172 21.2914 13.6442 21.6007 13.3351C21.8723 13.0637 21.9725 12.8333 21.997 12.4246C22.0378 11.7427 22.3834 12.1371 17.1762 6.92425C13.9117 3.65629 12.4807 2.25424 12.321 2.16738C12.0531 2.02163 11.7301 1.96364 11.4325 2.00778ZM10.4965 10.525L8.35916 12.6615L9.85071 14.1521L11.3423 15.6428L13.4915 13.4949L15.6408 11.3469L14.1613 9.86771C13.3476 9.05419 12.671 8.38857 12.6578 8.38857C12.6446 8.38857 11.6721 9.34995 10.4965 10.525ZM2.97913 10.3079C2.75836 10.3801 2.58025 10.4923 2.39928 10.6731C2.12777 10.9443 2.02746 11.1747 2.00303 11.5835C1.96225 12.2653 1.61632 11.8705 6.8274 17.0888C11.9891 22.2575 11.7128 22.0111 12.3464 22.0111C12.902 22.0111 13.3485 21.737 13.5947 21.2446C13.7146 21.0047 13.7382 20.9023 13.7379 20.6243C13.737 19.977 14.0216 20.2971 8.86173 15.1427C5.53623 11.8208 4.16463 10.4804 4.01302 10.4043C3.78506 10.2898 3.20061 10.2353 2.97913 10.3079ZM0.880436 14.332C0.5961 14.4366 0.279863 14.7365 0.129191 15.0443C0.0233868 15.2604 -0.00109091 15.3736 3.66666e-05 15.6413C0.00238578 16.2013 0.0674092 16.2958 1.30074 17.5327L2.38908 18.6242L1.56055 19.4578C0.346389 20.6794 0.330228 20.5413 1.86838 22.0888C3.44167 23.6718 3.31482 23.6553 4.54176 22.4372L5.37593 21.6092L6.49152 22.7167C7.7452 23.9612 7.80529 24.0015 8.40586 24C8.65947 23.9993 8.78604 23.9731 8.95889 23.8855C9.66447 23.5279 9.95336 22.7294 9.63224 22.0246C9.51887 21.7757 9.13047 21.3722 5.8785 18.1244C3.30956 15.5589 2.1895 14.4707 2.03977 14.3952C1.7668 14.2575 1.17083 14.225 0.880436 14.332Z" fill="url(#paint0_linear_446_218)"/>
<defs>
<linearGradient id="paint0_linear_446_218" x1="0" y1="0" x2="24" y2="24" gradientUnits="userSpaceOnUse">
<stop stop-color="#F9E2BA"/>
<stop offset="1" stop-color="#D7A375"/>
</linearGradient>
</defs>
</svg>
