<svg width="24" height="18" viewBox="0 0 24 18" fill="none" xmlns="http://www.w3.org/2000/svg">
<path fill-rule="evenodd" clip-rule="evenodd" d="M0.270453 0.0627769C-0.018855 0.221868 0.000316617 -0.411544 0.000316617 8.99022C0.000316617 18.4324 -0.0208706 17.7633 0.28339 17.9207C0.40442 17.9833 0.65515 17.9916 2.06771 17.9801L3.71116 17.9666L3.8479 17.8135L3.98463 17.6605V15.8331V14.0058H12.0001H20.0156V15.8331V17.6605L20.1524 17.8135L20.2891 17.9666L21.9326 17.9801C23.3451 17.9916 23.5958 17.9833 23.7169 17.9207C24.0112 17.7685 23.9999 17.9245 23.9999 14.0151C23.9999 11.599 23.9838 10.4109 23.9496 10.3128C23.9218 10.2333 23.8428 10.13 23.7738 10.0831C23.6537 10.0017 23.2278 9.9975 13.8165 9.98587L3.98463 9.97373V5.14685V0.319976L3.8479 0.166885L3.71116 0.0137934L2.05496 0.00301217C0.653931 -0.00608144 0.378967 0.00310598 0.270453 0.0627769ZM7.35958 3.06006C6.27331 3.30455 5.33953 4.22038 5.08885 5.28715C5.04947 5.45472 5.01727 5.77113 5.01727 5.99026C5.01727 6.82744 5.28717 7.48007 5.88201 8.08118C6.51209 8.71797 7.30216 9.02823 8.15644 8.97442C9.48209 8.89089 10.5655 8.00731 10.9011 6.73617C11.0053 6.34149 11.0053 5.63903 10.9011 5.24435C10.6355 4.23801 9.87208 3.4389 8.88299 3.13178C8.45629 2.99926 7.77263 2.96711 7.35958 3.06006ZM12.2703 3.06367C11.9962 3.2124 12.0001 3.16965 12.0001 5.99026C12.0001 8.20718 12.0102 8.59249 12.0712 8.71052C12.2246 9.007 11.8688 8.99022 18 8.99022C24.1312 8.99022 23.7755 9.007 23.9288 8.71052C24.0181 8.53788 24.0185 8.24956 23.9301 7.66353C23.5763 5.3163 21.6739 3.41391 19.3267 3.06011C18.6446 2.95731 12.4606 2.9604 12.2703 3.06367Z" fill="url(#paint0_linear_446_220)"/>
<defs>
<linearGradient id="paint0_linear_446_220" x1="0" y1="0" x2="17.2609" y2="23.0344" gradientUnits="userSpaceOnUse">
<stop stop-color="#F9E2BA"/>
<stop offset="1" stop-color="#D7A375"/>
</linearGradient>
</defs>
</svg>
