<svg width="16" height="24" viewBox="0 0 16 24" fill="none" xmlns="http://www.w3.org/2000/svg">
<path fill-rule="evenodd" clip-rule="evenodd" d="M0.466794 0.0639971C0.244354 0.154685 0.054329 0.38994 0.0181074 0.619568C0.000823267 0.72906 -0.00513887 2.27461 0.00483084 4.05414C0.0227663 7.25636 0.0241192 7.2935 0.137243 7.66427C0.541993 8.99116 1.61371 9.97635 3.0495 10.3415C3.49608 10.455 4.45057 10.4551 4.92811 10.3417C6.39131 9.99408 7.56037 8.8578 7.86186 7.49021C7.95089 7.08648 7.95785 6.82285 7.95845 3.82278C7.95911 0.631572 7.95775 0.587729 7.85365 0.386376C7.61207 -0.0806634 6.9182 -0.129946 6.5929 0.29686L6.48118 0.44349L6.45613 3.23354L6.43108 6.02358L5.59343 6.03643L4.75582 6.04928L4.74174 3.26153C4.72802 0.529489 4.72566 0.471156 4.62441 0.344268C4.28319 -0.0833831 3.69332 -0.106923 3.3786 0.294516C3.2771 0.423983 3.27429 0.487615 3.2498 3.22524L3.22475 6.02358H2.37306H1.52138L1.49633 3.22524C1.47183 0.487615 1.46903 0.423983 1.36752 0.294516C1.16047 0.0303289 0.784973 -0.0657519 0.466794 0.0639971ZM10.1384 0.0642315C9.95415 0.140852 9.78702 0.306004 9.71593 0.481707C9.6789 0.573099 9.66247 2.81934 9.66247 7.78507V14.9564H12.5608H15.4591L15.6248 14.8509C15.7158 14.7929 15.8375 14.6858 15.8952 14.613C15.9999 14.4807 16 14.4787 16 9.5956C16 5.78083 15.9857 4.63869 15.9347 4.38238C15.5946 2.67234 14.5089 1.30343 12.8901 0.543885C11.9863 0.119845 10.5899 -0.123616 10.1384 0.0642315ZM5.90504 11.5175C5.22019 11.7559 4.76574 11.8294 3.97623 11.8295C3.2038 11.8296 2.63248 11.7361 2.04842 11.5139C1.87307 11.4472 1.7109 11.3927 1.68811 11.3927C1.66526 11.3927 1.64663 13.8174 1.64663 16.781C1.64663 21.9377 1.65068 22.1817 1.74156 22.4548C2.09762 23.5257 3.29063 24.1834 4.46224 23.9547C5.3787 23.7758 6.1341 23.0476 6.30554 22.1777C6.3385 22.0106 6.35188 20.0633 6.34361 16.6445L6.33089 11.3692L5.90504 11.5175ZM9.67289 19.3056L9.68752 22.2481L9.80806 22.5294C9.87439 22.6842 9.98421 22.8935 10.0521 22.9947C10.3551 23.4459 10.9753 23.8418 11.5562 23.9548C12.7285 24.1829 13.9208 23.5256 14.2768 22.4548C14.3657 22.1876 14.3718 21.9838 14.3718 19.2663V16.3632H12.015H9.65826L9.67289 19.3056Z" fill="url(#paint0_linear_446_216)"/>
<defs>
<linearGradient id="paint0_linear_446_216" x1="0" y1="0" x2="22.1538" y2="14.7692" gradientUnits="userSpaceOnUse">
<stop stop-color="#F9E2BA"/>
<stop offset="1" stop-color="#D7A375"/>
</linearGradient>
</defs>
</svg>
