<svg width="18" height="18" viewBox="0 0 18 18" fill="none" xmlns="http://www.w3.org/2000/svg">
<rect width="18" height="18" rx="9" fill="#D7A375"/>
<path d="M9 3C5.68629 3 3 5.68629 3 9C3 12.3137 5.68629 15 9 15C12.3137 15 15 12.3137 15 9C15 5.68629 12.3137 3 9 3ZM8.81177 5.05884C9.08671 5.05885 9.31058 5.13299 9.4834 5.28223C9.65621 5.43149 9.74268 5.62832 9.74268 5.87183C9.74268 6.11536 9.65622 6.31145 9.4834 6.4607C9.31058 6.60996 9.08671 6.68483 8.81177 6.68482C8.53683 6.68483 8.31295 6.60996 8.14014 6.4607C7.97518 6.31145 7.89258 6.11536 7.89258 5.87183C7.89258 5.62832 7.97518 5.43149 8.14014 5.28223C8.31295 5.13298 8.53683 5.05885 8.81177 5.05884ZM9.67163 7.68604L9.90747 7.95704C9.78178 8.28697 9.71851 8.65213 9.71851 9.05274V11.9399C9.71851 12.0421 9.72697 12.1123 9.74268 12.1516C9.76624 12.1909 9.8172 12.2303 9.89576 12.2695C10.0372 12.3559 10.2448 12.4385 10.5198 12.5171L10.4377 12.9412C9.76218 12.8705 9.28666 12.8357 9.01172 12.8357C8.73678 12.8357 8.26585 12.8705 7.59815 12.9412L7.50367 12.5171C7.78646 12.4543 7.99488 12.3755 8.12843 12.2813C8.24626 12.2106 8.30494 12.0971 8.30494 11.9399V8.99415C8.30494 8.71922 8.19844 8.5818 7.98634 8.5818L7.57399 8.66383L7.48024 8.19288C7.76303 8.07506 8.13591 7.96082 8.59938 7.85084C9.06283 7.74086 9.42025 7.68604 9.67163 7.68604Z" fill="#8A6747"/>
</svg>
