<svg width="18" height="18" viewBox="0 0 18 18" fill="none" xmlns="http://www.w3.org/2000/svg">
<rect width="18" height="18" rx="9" fill="#24B4CE"/>
<path d="M13.8317 6.96563C13.5688 6.33812 13.1863 5.76776 12.7056 5.28634C12.2262 4.80407 11.6569 4.42065 11.0298 4.15782C10.3874 3.88727 9.69715 3.74859 9.0001 3.75001H8.97666C8.26768 3.75353 7.58213 3.89415 6.93643 4.17071C6.31471 4.43623 5.75069 4.82034 5.27588 5.30157C4.79979 5.78192 4.42167 6.35028 4.1626 6.97501C3.89368 7.62465 3.75741 8.32153 3.76182 9.02462C3.76534 9.8379 3.95987 10.6453 4.32315 11.3672V13.1484C4.32315 13.4461 4.56456 13.6875 4.86104 13.6875H6.63994C7.36519 14.0535 8.1655 14.246 8.97783 14.25H9.00244C9.70322 14.25 10.3817 14.1141 11.0216 13.8481C11.6455 13.5884 12.2127 13.2094 12.6915 12.7324C13.1743 12.2531 13.554 11.693 13.82 11.0684C14.0954 10.4215 14.236 9.7336 14.2395 9.02345C14.2419 8.30977 14.1036 7.6172 13.8317 6.96563ZM6.66104 9.56251C6.35166 9.56251 6.09971 9.31056 6.09971 9.00001C6.09971 8.68946 6.35166 8.43751 6.66104 8.43751C6.97041 8.43751 7.22236 8.68946 7.22236 9.00001C7.22236 9.31056 6.97158 9.56251 6.66104 9.56251ZM9.0001 9.56251C8.69072 9.56251 8.43877 9.31056 8.43877 9.00001C8.43877 8.68946 8.69072 8.43751 9.0001 8.43751C9.30947 8.43751 9.56142 8.68946 9.56142 9.00001C9.56142 9.31056 9.30947 9.56251 9.0001 9.56251ZM11.3392 9.56251C11.0298 9.56251 10.7778 9.31056 10.7778 9.00001C10.7778 8.68946 11.0298 8.43751 11.3392 8.43751C11.6485 8.43751 11.9005 8.68946 11.9005 9.00001C11.9005 9.31056 11.6485 9.56251 11.3392 9.56251Z" fill="#105C6A"/>
</svg>
