<svg width="20" height="22" viewBox="0 0 20 22" fill="none" xmlns="http://www.w3.org/2000/svg">
<path d="M17 2C17.2651 2.00029 17.5193 2.10574 17.7068 2.29321C17.8943 2.48069 17.9997 2.73487 18 3V13C17.9997 13.2651 17.8943 13.5193 17.7068 13.7068C17.5193 13.8943 17.2651 13.9997 17 14H5.1716L4.5858 14.5858L2 17.1716V3C2.00029 2.73487 2.10574 2.48069 2.29321 2.29321C2.48069 2.10574 2.73487 2.00029 3 2H17ZM17 0H3C2.20435 0 1.44129 0.31607 0.87868 0.87868C0.31607 1.44129 0 2.20435 0 3V22L6 16H17C17.7956 16 18.5587 15.6839 19.1213 15.1213C19.6839 14.5587 20 13.7956 20 13V3C20 2.20435 19.6839 1.44129 19.1213 0.87868C18.5587 0.31607 17.7956 0 17 0Z" fill="url(#paint0_linear_116_48)"/>
<defs>
<linearGradient id="paint0_linear_116_48" x1="10" y1="0" x2="10" y2="22" gradientUnits="userSpaceOnUse">
<stop stop-color="#79BFD6"/>
<stop offset="1" stop-color="#1C8699"/>
</linearGradient>
</defs>
</svg>
